<?xml version="1.0" encoding="UTF-8" standalone="no"?>
<!-- Created with Inkscape (http://www.inkscape.org/) -->

<svg
   version="1.1"
   id="svg2"
   width="2560"
   height="1440"
   viewBox="0 0 2560 1440"
   sodipodi:docname="reshot-illustration-minimal-background-87S6NK4WDP.eps"
   xmlns:inkscape="http://www.inkscape.org/namespaces/inkscape"
   xmlns:sodipodi="http://sodipodi.sourceforge.net/DTD/sodipodi-0.dtd"
   xmlns="http://www.w3.org/2000/svg"
   xmlns:svg="http://www.w3.org/2000/svg">
  <defs
     id="defs6">
    <clipPath
       clipPathUnits="userSpaceOnUse"
       id="clipPath98">
      <path
         d="m 6258.61,8108.02 c -403.93,0 -731.38,327.45 -731.38,731.39 0,403.93 327.45,731.38 731.38,731.38 403.94,0 731.39,-327.45 731.39,-731.38 0,-403.94 -327.45,-731.39 -731.39,-731.39"
         id="path96" />
    </clipPath>
    <clipPath
       clipPathUnits="userSpaceOnUse"
       id="clipPath104">
      <path
         d="M 5527.23,8108.02 H 6990 V 9570.79 H 5527.23 Z"
         id="path102" />
    </clipPath>
    <radialGradient
       fx="0"
       fy="0"
       cx="0"
       cy="0"
       r="1"
       gradientUnits="userSpaceOnUse"
       gradientTransform="matrix(731.385,0,0,-731.385,6258.61,8839.4)"
       spreadMethod="pad"
       id="radialGradient112">
      <stop
         style="stop-opacity:1;stop-color:#58c6a5"
         offset="0"
         id="stop106" />
      <stop
         style="stop-opacity:1;stop-color:#58c6a5"
         offset="0.00085747"
         id="stop108" />
      <stop
         style="stop-opacity:1;stop-color:#faf5f5"
         offset="1"
         id="stop110" />
    </radialGradient>
    <clipPath
       clipPathUnits="userSpaceOnUse"
       id="clipPath134">
      <path
         d="m 3668.85,654.199 c -718.6,0 -1301.14,582.561 -1301.14,1301.161 0,718.6 582.54,1301.15 1301.14,1301.15 718.6,0 1301.15,-582.55 1301.15,-1301.15 0,-718.6 -582.55,-1301.161 -1301.15,-1301.161"
         id="path132" />
    </clipPath>
    <radialGradient
       fx="0"
       fy="0"
       cx="0"
       cy="0"
       r="1"
       gradientUnits="userSpaceOnUse"
       gradientTransform="matrix(1301.15,0,0,-1301.15,3668.85,1955.37)"
       spreadMethod="pad"
       id="radialGradient140">
      <stop
         style="stop-opacity:1;stop-color:#78bfeb"
         offset="0"
         id="stop136" />
      <stop
         style="stop-opacity:1;stop-color:#faf5f5"
         offset="1"
         id="stop138" />
    </radialGradient>
  </defs>
  <sodipodi:namedview
     id="namedview4"
     pagecolor="#ffffff"
     bordercolor="#000000"
     borderopacity="0.25"
     inkscape:showpageshadow="2"
     inkscape:pageopacity="0.0"
     inkscape:pagecheckerboard="0"
     inkscape:deskcolor="#d1d1d1" />
  <g
     id="g8"
     inkscape:groupmode="layer"
     inkscape:label="ink_ext_XXXXXX"
     transform="matrix(1.3333333,0,0,-1.3333333,0,1440)">
    <g
       id="g10"
       transform="scale(0.1)">
      <path
         d="M 0,0 H 19200 V 10800 H 0 Z"
         style="fill:#fbf5f5;fill-opacity:1;fill-rule:nonzero;stroke:none"
         id="path12" />
      <path
         d="m 1707.26,1674.86 c -28,0 -50.69,-22.69 -50.69,-50.68 l 0.04,-0.43 -0.04,-0.42 0.07,-1.29 -0.07,-1.29 c 0,-27.99 22.69,-50.68 50.69,-50.68 27.99,0 50.68,22.69 50.68,50.68 l -0.06,1.29 0.06,1.29 -0.04,0.42 0.04,0.43 c 0,27.99 -22.69,50.68 -50.68,50.68"
         style="fill:#d7c7b9;fill-opacity:1;fill-rule:nonzero;stroke:none"
         id="path14" />
      <path
         d="m 1707.26,1303.15 c -28,0 -50.69,-22.69 -50.69,-50.69 0,-27.99 22.69,-50.68 50.69,-50.68 27.99,0 50.68,22.69 50.68,50.68 0,28 -22.69,50.69 -50.68,50.69"
         style="fill:#d7c7b9;fill-opacity:1;fill-rule:nonzero;stroke:none"
         id="path16" />
      <path
         d="m 1707.26,934.012 c -28,0 -50.69,-22.692 -50.69,-50.68 l 0.07,-1.293 -0.07,-1.289 c 0,-27.988 22.69,-50.68 50.69,-50.68 27.99,0 50.68,22.692 50.68,50.68 l -0.06,1.289 0.06,1.293 c 0,27.988 -22.69,50.68 -50.68,50.68"
         style="fill:#d7c7b9;fill-opacity:1;fill-rule:nonzero;stroke:none"
         id="path18" />
      <path
         d="m 1301.75,1674.86 c -27.99,0 -50.69,-22.69 -50.69,-50.68 l 0.05,-0.43 -0.05,-0.42 0.07,-1.29 -0.07,-1.29 c 0,-27.99 22.7,-50.68 50.69,-50.68 28,0 50.69,22.69 50.69,50.68 l -0.06,1.29 0.06,1.29 -0.04,0.42 0.04,0.43 c 0,27.99 -22.69,50.68 -50.69,50.68"
         style="fill:#d7c7b9;fill-opacity:1;fill-rule:nonzero;stroke:none"
         id="path20" />
      <path
         d="m 1301.75,1303.15 c -27.99,0 -50.69,-22.69 -50.69,-50.69 0,-27.99 22.7,-50.68 50.69,-50.68 28,0 50.69,22.69 50.69,50.68 0,28 -22.69,50.69 -50.69,50.69"
         style="fill:#d7c7b9;fill-opacity:1;fill-rule:nonzero;stroke:none"
         id="path22" />
      <path
         d="m 1301.75,934.012 c -27.99,0 -50.69,-22.692 -50.69,-50.68 l 0.07,-1.293 -0.07,-1.289 c 0,-27.988 22.7,-50.68 50.69,-50.68 28,0 50.69,22.692 50.69,50.68 l -0.06,1.289 0.06,1.293 c 0,27.988 -22.69,50.68 -50.69,50.68"
         style="fill:#d7c7b9;fill-opacity:1;fill-rule:nonzero;stroke:none"
         id="path24" />
      <path
         d="m 896.25,1674.86 c -27.992,0 -50.687,-22.69 -50.687,-50.68 l 0.042,-0.43 -0.042,-0.42 0.066,-1.29 -0.066,-1.29 c 0,-27.99 22.695,-50.68 50.687,-50.68 27.992,0 50.688,22.69 50.688,50.68 l -0.063,1.29 0.063,1.29 -0.043,0.42 0.043,0.43 c 0,27.99 -22.696,50.68 -50.688,50.68"
         style="fill:#d7c7b9;fill-opacity:1;fill-rule:nonzero;stroke:none"
         id="path26" />
      <path
         d="m 896.25,1303.15 c -27.992,0 -50.687,-22.69 -50.687,-50.69 0,-27.99 22.695,-50.68 50.687,-50.68 27.992,0 50.688,22.69 50.688,50.68 0,28 -22.696,50.69 -50.688,50.69"
         style="fill:#d7c7b9;fill-opacity:1;fill-rule:nonzero;stroke:none"
         id="path28" />
      <path
         d="m 896.25,934.012 c -27.992,0 -50.687,-22.692 -50.687,-50.68 l 0.066,-1.293 -0.066,-1.289 c 0,-27.988 22.695,-50.68 50.687,-50.68 27.992,0 50.688,22.692 50.688,50.68 l -0.063,1.289 0.063,1.293 c 0,27.988 -22.696,50.68 -50.688,50.68"
         style="fill:#d7c7b9;fill-opacity:1;fill-rule:nonzero;stroke:none"
         id="path30" />
      <path
         d="m 1707.26,2313.49 c 27.99,0 50.68,22.69 50.68,50.69 0,27.99 -22.69,50.68 -50.68,50.68 -28,0 -50.69,-22.69 -50.69,-50.68 0,-28 22.69,-50.69 50.69,-50.69"
         style="fill:#d7c7b9;fill-opacity:1;fill-rule:nonzero;stroke:none"
         id="path32" />
      <path
         d="m 1707.26,2043.15 c -28,0 -50.69,-22.69 -50.69,-50.69 0,-27.99 22.69,-50.68 50.69,-50.68 27.99,0 50.68,22.69 50.68,50.68 0,28 -22.69,50.69 -50.68,50.69"
         style="fill:#d7c7b9;fill-opacity:1;fill-rule:nonzero;stroke:none"
         id="path34" />
      <path
         d="m 1301.75,2414.86 c -27.99,0 -50.69,-22.69 -50.69,-50.68 0,-28 22.7,-50.69 50.69,-50.69 28,0 50.69,22.69 50.69,50.69 0,27.99 -22.69,50.68 -50.69,50.68"
         style="fill:#d7c7b9;fill-opacity:1;fill-rule:nonzero;stroke:none"
         id="path36" />
      <path
         d="m 1301.75,2043.15 c -27.99,0 -50.69,-22.69 -50.69,-50.69 0,-27.99 22.7,-50.68 50.69,-50.68 28,0 50.69,22.69 50.69,50.68 0,28 -22.69,50.69 -50.69,50.69"
         style="fill:#d7c7b9;fill-opacity:1;fill-rule:nonzero;stroke:none"
         id="path38" />
      <path
         d="m 896.25,2414.86 c -27.992,0 -50.687,-22.69 -50.687,-50.68 0,-28 22.695,-50.69 50.687,-50.69 27.992,0 50.688,22.69 50.688,50.69 0,27.99 -22.696,50.68 -50.688,50.68"
         style="fill:#d7c7b9;fill-opacity:1;fill-rule:nonzero;stroke:none"
         id="path40" />
      <path
         d="m 896.25,2043.15 c -27.992,0 -50.687,-22.69 -50.687,-50.69 0,-27.99 22.695,-50.68 50.687,-50.68 27.992,0 50.688,22.69 50.688,50.68 0,28 -22.696,50.69 -50.688,50.69"
         style="fill:#d7c7b9;fill-opacity:1;fill-rule:nonzero;stroke:none"
         id="path42" />
      <path
         d="m 19200,47.8008 c -17.9,-16.1016 -36,-32 -54.2,-47.8008 h 54.2 v 47.8008"
         style="fill:#d7c7b9;fill-opacity:1;fill-rule:nonzero;stroke:none"
         id="path44" />
      <path
         d="m 12209.4,1157.95 c -800.4,997.7 -1291.4,2064.62 -1347.1,2927.17 -23.5,364.56 31.1,686.98 162.3,958.31 141.2,291.97 372,525.55 686,694.25 739.5,397.29 1391.4,1058.89 2021.9,1698.7 598.1,607 1163,1180.33 1795.4,1545.89 339,195.97 664.7,312.61 995.8,356.58 370.5,49.21 739.2,6.98 1127.2,-129.12 569.1,-199.68 1089.7,-510.15 1549.1,-923.62 v 52.85 c -457.3,406.39 -974,712.3 -1538,910.19 -393.1,137.89 -766.9,180.65 -1142.7,130.73 -335.5,-44.56 -665.4,-162.62 -1008.4,-360.92 -636.6,-368.03 -1203.3,-943.13 -1803.3,-1551.99 -628.5,-637.83 -1278.4,-1297.37 -2013,-1692.05 -321.2,-172.55 -557.5,-412.06 -702.5,-711.84 -134.6,-278.36 -190.7,-608.39 -166.7,-980.93 56.3,-871.52 550.7,-1947.38 1356.4,-2951.78 C 12516.9,712.801 12894.5,325.301 13282.4,0 h 62.1 c -400,330.301 -790.2,728 -1135.1,1157.95"
         style="fill:#d7c7b9;fill-opacity:1;fill-rule:nonzero;stroke:none"
         id="path46" />
      <path
         d="m 12734.8,1260.42 c -712.8,890.04 -1164.4,1861.73 -1238.8,2665.93 -32.6,351.83 7.1,666.09 118,934.04 119.1,287.98 321,522.47 599.9,696.98 588.1,367.87 1137.5,924.98 1668.8,1463.74 559.5,567.3 1138,1153.91 1760,1516.85 333.9,194.87 653.6,311.72 977.3,357.24 363.2,51.06 722.4,11.79 1098.3,-120.06 546.6,-191.76 1044.8,-493.75 1481.7,-898.01 v 53.38 c -435,396.85 -929.3,694.12 -1470.7,884.06 -381,133.66 -745.3,173.45 -1113.9,121.63 -328.2,-46.15 -652,-164.43 -989.9,-361.62 C 14999.4,8209.19 14419.1,7620.76 13857.9,7051.71 13328.1,6514.5 12780.3,5958.99 12195.8,5593.42 11644.6,5248.59 11389.9,4670.66 11459.2,3922.1 11581.8,2597.83 12695.3,944.449 13970.4,0 h 67.8 c -455.1,329.801 -902.7,760.102 -1303.4,1260.42"
         style="fill:#d7c7b9;fill-opacity:1;fill-rule:nonzero;stroke:none"
         id="path48" />
      <path
         d="m 19200,273.602 v 53.8 C 19073,210.102 18939.9,100.898 18801.3,0 h 67.3 c 114.4,85.6016 225,176.801 331.4,273.602"
         style="fill:#d7c7b9;fill-opacity:1;fill-rule:nonzero;stroke:none"
         id="path50" />
      <path
         d="M 13266.6,1357.08 C 12643,2136 12230.9,3008.94 12135.8,3752.07 c -91.1,711.77 110,1273.77 581.6,1625.22 434.1,323.52 845.7,745.26 1281.5,1191.78 1108,1135.31 2253.8,2309.29 3786.7,1771.49 520,-182.42 992.4,-473.15 1404.2,-864.13 3.4,-3.27 6.8,-6.64 10.2,-9.92 v 54.31 c -412.3,388.04 -884.3,677.1 -1403.3,859.16 -1553.3,544.94 -2707.1,-637.23 -3822.8,-1780.46 -434.7,-445.4 -845.3,-866.11 -1277,-1187.85 -484.3,-360.91 -691,-936.82 -597.7,-1665.45 96.1,-751 511.5,-1631.85 1139.8,-2416.69 C 13685.3,772 14201.7,311 14718.1,0 h 79.1 c -533,308.398 -1069.3,780.801 -1530.6,1357.08"
         style="fill:#d7c7b9;fill-opacity:1;fill-rule:nonzero;stroke:none"
         id="path52" />
      <path
         d="m 18461.8,2 c 265.4,154.801 512.2,339.402 738.2,551.602 v 54.5 C 18969.5,388.199 18717.1,197.5 18444.7,38.6016 18422.1,25.5 18399.5,12.6016 18376.8,0 h 81.5 c 1.2,0.699219 2.3,1.30078 3.5,2"
         style="fill:#d7c7b9;fill-opacity:1;fill-rule:nonzero;stroke:none"
         id="path54" />
      <path
         d="M 15642.2,38.6016 C 15008.5,260.898 14356.9,760.398 13807.5,1445.01 c -532.1,662.91 -904.6,1431.36 -1021.9,2108.29 -121.9,702.98 28.7,1271.56 435.5,1644.31 270,247.38 540.2,534.54 826.4,838.56 543.5,577.47 1105.5,1174.6 1731.3,1566.88 709.4,444.64 1387.8,543.73 2074.2,302.93 475.3,-166.75 907.2,-432.5 1283.5,-789.88 21.4,-20.32 42.6,-40.93 63.5,-61.73 v 54.78 c -13.1,12.84 -26.2,25.79 -39.5,38.43 -380.2,360.98 -816.3,629.41 -1296.4,797.82 -696.6,244.4 -1384.7,144.2 -2103.4,-306.31 -629.9,-394.81 -1193.6,-993.75 -1738.7,-1572.98 -285.6,-303.48 -555.4,-590.14 -824.3,-836.56 -418,-382.95 -573,-965.3 -448.4,-1684.1 118.6,-684.07 494.2,-1459.71 1030.6,-2128.03 C 14333.1,728.199 14989.7,224.902 15628.9,0 h 130.1 c -39,12.1992 -78,25 -116.8,38.6016"
         style="fill:#d7c7b9;fill-opacity:1;fill-rule:nonzero;stroke:none"
         id="path56" />
      <path
         d="m 18472.5,280.801 c 263.5,153.597 506.7,339.301 727.5,554.621 V 890.48 C 18975,667.102 18725.9,475.199 18455.4,317.402 18225.2,183.102 17985.6,77.1016 17739,0 h 129.4 c 207.2,73.1992 408.9,166.898 604.1,280.801"
         style="fill:#d7c7b9;fill-opacity:1;fill-rule:nonzero;stroke:none"
         id="path58" />
      <path
         d="M 18466.2,596.199 C 18081.3,371.602 17667.9,234.301 17237.7,188.102 16792.2,140.199 16348,192.5 15917.4,343.602 15374.7,534 14822.1,951.5 14361.6,1519.18 c -444.5,548.01 -767.3,1185.48 -909,1794.99 -78.7,338.56 -98,653.86 -57.4,937.12 43.4,302.04 154.3,560.16 329.9,767.18 65.3,77.09 130.9,155.12 200.2,237.75 514.2,612.32 1096.9,1306.35 1763.4,1781.1 770.3,548.68 1500.3,690.66 2231.7,434.07 430.6,-151.07 821.9,-391.84 1162.9,-715.63 39.8,-37.8 78.7,-76.58 116.7,-116.23 v 55.97 c -30.4,31.09 -61.2,61.8 -92.8,91.75 -344.8,327.38 -740.3,570.83 -1175.7,723.56 -742.5,260.47 -1482.6,116.99 -2262.7,-438.64 -670.4,-477.54 -1254.8,-1173.58 -1770.5,-1787.69 -69.3,-82.58 -134.8,-160.58 -200.1,-237.6 -180.7,-213.17 -295,-478.64 -339.5,-789.06 -41.4,-288.92 -21.9,-609.92 58.1,-954.04 143.2,-615.85 469,-1259.48 917.4,-1812.34 C 14799.1,918.391 15357.4,496.699 15906.4,304.199 16341.7,151.402 16790.8,98.5 17241.2,147 c 435.1,46.699 853,185.5 1242.1,412.5 261.8,152.699 501.6,340.332 716.7,559.93 v 56.19 c -219.1,-228.307 -464.7,-422.518 -733.8,-579.421"
         style="fill:#d7c7b9;fill-opacity:1;fill-rule:nonzero;stroke:none"
         id="path60" />
      <path
         d="M 18477,874.941 C 17767.5,461.102 16956.2,380.699 16192.6,648.602 15743.9,806.02 15309,1125.34 14935,1572.03 c -347.4,414.89 -626.1,925.35 -784.8,1437.33 -108.2,348.73 -158.2,682.4 -148.6,991.74 10.1,326.4 86.7,608.69 227.6,839.01 328.3,536.74 869.8,1283.07 1585.2,1790.54 731.5,518.82 1462.7,655.47 2173.4,406.15 464.1,-162.81 876.7,-442.62 1212.2,-814.9 v 58.2 c -334.9,362.57 -743.3,635.51 -1201.1,796.13 -721.6,253.13 -1463.2,114.95 -2204.3,-410.7 -720.8,-511.23 -1265.7,-1262.17 -1596,-1802.11 -144.9,-236.89 -223.6,-526.54 -233.9,-860.89 -9.8,-314.44 40.9,-653.15 150.5,-1006.69 160.4,-517.33 442,-1033.01 792.8,-1452.04 378.3,-451.88 818.7,-775.101 1273.6,-934.698 773,-271.2 1594.2,-189.801 2312.5,229.218 262.1,152.899 498.9,344.24 705.9,567.38 v 57.66 c -210.5,-232.46 -453.2,-431.02 -723,-588.419"
         style="fill:#d7c7b9;fill-opacity:1;fill-rule:nonzero;stroke:none"
         id="path62" />
      <path
         d="m 18487.7,1153.71 c -627.3,-365.909 -1344.6,-437.011 -2019.8,-200.171 -341.1,119.661 -656.9,337.951 -938.7,648.821 -255.7,282.17 -475.4,635.88 -635.2,1022.89 -146.4,354.51 -239.3,728.56 -268.7,1081.72 -30.1,360.76 7.2,691.27 107.9,955.8 262.4,689.53 748.8,1297.76 1334.4,1668.71 305.8,193.7 626.7,317.34 953.9,367.48 350.1,53.64 697.8,21.09 1033.7,-96.74 444.6,-155.98 835.9,-433.26 1144.8,-804.57 v 60 c -308.9,360.47 -695.7,630.33 -1133.7,783.99 -341.1,119.67 -694.3,152.73 -1049.8,98.26 -331.9,-50.86 -657.3,-176.18 -967.2,-372.47 -592.5,-375.35 -1084.6,-990.77 -1350.2,-1688.48 -103,-270.82 -141.3,-608.25 -110.7,-975.82 29.9,-357.77 123.9,-736.48 272,-1095.18 161.7,-391.48 384,-749.37 642.8,-1034.99 286,-315.53 606.8,-537.19 953.6,-658.839 684.6,-240.219 1411.9,-168.121 2048,202.969 262.3,152.97 495.9,349.28 695.2,580.69 v 60.1 c -202.2,-241.93 -441.9,-446.42 -712.3,-604.17"
         style="fill:#d7c7b9;fill-opacity:1;fill-rule:nonzero;stroke:none"
         id="path64" />
      <path
         d="m 18498.5,1432.49 c -545.2,-318.04 -1168.6,-379.82 -1755.4,-173.96 -286.7,100.55 -544.9,281.1 -767.6,536.63 -200.2,229.72 -367.7,514.44 -497.8,846.24 -230.8,588.54 -323.2,1295.56 -241.1,1845.15 46.5,311.08 149.3,594.91 305.5,843.64 146.7,233.55 337.3,431.68 566.5,588.87 281.1,192.81 614.9,317.73 965.2,361.27 351.5,43.67 714.1,4.7 1048.8,-112.7 427.2,-149.86 797.6,-428.62 1077.4,-804.15 v 63.82 c -280.8,362.71 -646.6,632.49 -1066.3,779.76 -339.5,119.1 -707.4,158.64 -1064,114.33 -355.7,-44.2 -694.8,-171.15 -980.5,-367.11 -233.5,-160.17 -427.7,-362.16 -577.4,-600.36 -159.4,-253.81 -264.2,-543.34 -311.6,-860.57 -83.3,-557.06 10.1,-1273.05 243.6,-1868.54 131.9,-336.36 301.9,-625.19 505.2,-858.47 227,-260.49 490.5,-444.6 783,-547.24 596.2,-209.16 1229.6,-146.39 1783.6,176.77 264,153.99 494.8,358.44 684.4,602.27 v 63.52 c -191.7,-256.12 -428.7,-469.98 -701.5,-629.17"
         style="fill:#d7c7b9;fill-opacity:1;fill-rule:nonzero;stroke:none"
         id="path66" />
      <path
         d="m 17018.3,1563.51 c -455.9,159.92 -780.3,533.71 -992,1142.72 -179.1,515.42 -242.2,1098.65 -287.2,1604.86 -45.5,510.41 85.1,908.83 388.1,1184.19 235.4,213.88 570.6,344.92 969.4,378.95 358.4,30.58 746.7,-19.56 1093.4,-141.18 424.4,-148.91 771.4,-445.63 1010,-823.47 v 72.52 c -248.5,372.81 -594.3,648.41 -998.9,790.37 -351.1,123.16 -744.3,173.93 -1107.3,142.96 -406.4,-34.67 -748.7,-168.87 -989.9,-388.1 -313.3,-284.66 -448.4,-695.24 -401.7,-1220.33 45.3,-508.92 108.8,-1095.46 289.6,-1615.73 99.4,-285.83 226.8,-525.4 378.7,-712.04 175.2,-215.27 389.5,-368.4 636.7,-455.15 507.8,-178.14 1047.3,-124.69 1519.1,150.56 268.9,156.82 497.3,375.03 673.7,638.65 v 71.9 c -477.6,-752.31 -1352.7,-1112.52 -2181.7,-821.68"
         style="fill:#d7c7b9;fill-opacity:1;fill-rule:nonzero;stroke:none"
         id="path68" />
      <path
         d="m 17293.5,1868.49 c -602.8,211.46 -718.9,787.92 -853.4,1455.4 -53.7,266.53 -109.3,542.15 -199.9,811.52 -154.3,458.66 -134.6,806.84 58.5,1034.87 390.5,461.18 1385.3,329.33 1958.7,128.19 422.5,-148.25 751.8,-474.46 942.6,-881.65 v 85.55 c -199,385.47 -522.5,692.02 -931.6,835.52 -582.2,204.25 -1594.4,335.74 -1996.6,-139.21 -203.6,-240.48 -225.9,-603.11 -66.2,-1077.81 89.7,-266.7 145,-540.89 198.4,-806.06 67.2,-333.42 130.6,-648.36 255,-908.65 140.3,-293.72 338.4,-477.1 623.4,-577.1 748,-262.39 1540.5,104.91 1917.6,833.46 v 85.43 C 18845.7,1993 18046.5,1604.32 17293.5,1868.49"
         style="fill:#d7c7b9;fill-opacity:1;fill-rule:nonzero;stroke:none"
         id="path70" />
      <path
         d="m 5270.1,8154.23 c -53.7,744.73 -525.74,1664.09 -1295.09,2522.37 -37.21,41.5 -75.01,82.6 -113.28,123.4 h -48.54 c 45.89,-48.5 91.13,-97.4 135.53,-147 764.22,-852.53 1233.01,-1764.24 1286.16,-2501.31 22.46,-311.52 -29.67,-587.04 -154.97,-818.89 C 4945.07,7083.31 4724.7,6883.7 4424.89,6739.54 3718.87,6400.05 3096.42,5834.7 2494.47,5287.97 1923.39,4769.27 1383.98,4279.35 780.211,3966.96 514.871,3829.69 258.066,3738.04 0,3688.73 v -35.88 c 263.656,49.63 525.754,142.71 796.441,282.76 607.869,314.5 1148.939,805.92 1721.769,1326.22 600.08,545.03 1220.59,1108.63 1921.99,1445.89 306.65,147.45 532.32,352.11 670.78,608.29 128.54,237.87 182.08,519.88 159.12,838.22"
         style="fill:#d7c7b9;fill-opacity:1;fill-rule:nonzero;stroke:none"
         id="path72" />
      <path
         d="m 4664.98,8291 c -82.78,800.27 -638.8,1741.2 -1387.86,2509 h -50.3 c 74.82,-75.9 148.3,-154.2 220.21,-234.5 680.62,-760.59 1111.75,-1590.92 1182.83,-2278.13 31.1,-300.66 -6.8,-569.2 -112.65,-798.16 C 4403.45,7243.12 4210.73,7042.74 3944.38,6893.62 3382.89,6579.27 2858.31,6103.21 2351.01,5642.82 1816.84,5158.06 1264.48,4656.77 670.652,4346.64 442.27,4227.35 220.855,4142.47 0,4089.5 v -36.31 c 226.41,53.5 453.168,140.02 687.004,262.15 597.846,312.24 1151.906,815.06 1687.736,1301.33 505.84,459.07 1028.9,933.75 1586.89,1246.15 526.3,294.66 769.52,788.51 703.35,1428.18"
         style="fill:#d7c7b9;fill-opacity:1;fill-rule:nonzero;stroke:none"
         id="path74" />
      <path
         d="m 2965.63,10506.4 c -91.05,101.8 -185.17,199.8 -281.67,293.6 h -50.8 c 105.07,-100.9 207.42,-206.7 306.14,-317.1 C 3534.65,9817.27 3928.18,9071.32 4018.97,8436.29 4105.93,7828.07 3913.91,7347.83 3463.65,7047.5 3049.22,6771.05 2656.21,6410.66 2240.13,6029.1 1541.22,5388.19 826.555,4733.01 0,4494.52 v -37.46 c 837.348,237.97 1558.64,899.21 2263.99,1546.02 415.05,380.61 807.08,740.11 1219.26,1015.04 462.36,308.41 659.69,800.54 570.68,1423.17 -91.75,641.75 -488.43,1394.46 -1088.3,2065.11"
         style="fill:#d7c7b9;fill-opacity:1;fill-rule:nonzero;stroke:none"
         id="path76" />
      <path
         d="m 2449.17,10431.3 c -117.54,131.1 -240,254.2 -366.05,368.7 h -52.82 c 135.4,-121 266.82,-252 392.59,-392.3 508,-566.45 863.61,-1223.1 975.65,-1801.55 C 3514.89,8005.43 3371.1,7519.57 2982.72,7201.05 2724.96,6989.66 2466.91,6744.27 2193.71,6484.48 1674.79,5991.01 1138.18,5480.75 540.66,5145.54 358.547,5043.37 178.574,4962.76 0,4903.19 v -37.32 c 184.297,60.62 370.016,143.45 557.938,248.87 601.382,337.37 1139.602,849.19 1660.102,1344.15 272.72,259.33 530.31,504.28 787.07,714.86 399.03,327.25 547.07,824.88 428.1,1439.11 -113.22,584.56 -471.89,1247.35 -984.04,1818.44"
         style="fill:#d7c7b9;fill-opacity:1;fill-rule:nonzero;stroke:none"
         id="path78" />
      <path
         d="m 1919.91,10368.1 c -143.45,158.2 -296.27,302.9 -455.06,431.9 h -56.25 c 169.58,-134.6 332.66,-287.4 485.15,-455.6 424.44,-468.33 732.68,-1013.07 867.93,-1533.91 75.14,-289.31 93.56,-558.74 54.78,-800.79 -41.36,-258.1 -147.3,-478.67 -314.9,-655.57 -62.42,-65.88 -124.98,-132.56 -191.22,-203.16 C 1819.46,6627.71 1263.09,6034.65 626.703,5628.96 414.926,5493.96 206.348,5387.94 0,5310.4 v -37.72 c 212.637,78.81 427.516,187.44 645.68,326.51 640.12,408.07 1198.11,1002.85 1690.42,1527.62 66.2,70.57 128.73,137.22 191.08,203.04 172.59,182.15 281.64,409.01 324.14,674.27 39.56,246.9 20.9,521.19 -55.46,815.25 -136.66,526.25 -447.74,1076.26 -875.95,1548.73"
         style="fill:#d7c7b9;fill-opacity:1;fill-rule:nonzero;stroke:none"
         id="path80" />
      <path
         d="m 1372.11,10323.3 c -173.39,185.4 -360.48,345.3 -556.165,476.7 h -64.226 c 209.613,-135.1 409.901,-303.4 594.601,-500.8 331.65,-354.55 597.78,-790.74 749.36,-1228.24 103.25,-298 150.97,-583.13 141.82,-847.47 -9.65,-278.91 -82.75,-520.14 -217.25,-716.95 C 1706.8,7047.88 1189.76,6410.12 506.637,5976.47 337.652,5869.21 168.684,5781.24 0,5712.25 v -38.29 c 175.016,70.59 350.305,161.46 525.559,272.71 688.191,436.86 1208.521,1078.55 1523.831,1539.95 138.35,202.42 213.51,449.93 223.4,735.66 9.29,268.69 -39.07,558.12 -143.75,860.23 -153.16,442.07 -421.97,882.74 -756.93,1240.79"
         style="fill:#d7c7b9;fill-opacity:1;fill-rule:nonzero;stroke:none"
         id="path82" />
      <path
         d="m 1417.5,9413.97 c -154.33,334.53 -366.55,640.33 -613.727,884.43 -226.156,223.3 -475.199,391.3 -742.1558,501.6 H 0 v -13.2 c 280.973,-107.8 542.535,-280.1 778.961,-513.5 244.189,-241.1 453.909,-543.41 606.469,-874.12 139.77,-302.93 228.5,-622.56 256.62,-924.35 28.73,-308.28 -6.9,-590.7 -103.02,-816.75 C 1288.47,7068.86 824.086,6549.12 264.941,6232.12 177.852,6182.75 89.4453,6138.83 0,6100.18 v -38.54 c 95.4023,40.57 189.609,87.18 282.359,139.77 565.75,320.74 1035.631,846.64 1289.161,1442.85 98.41,231.41 134.95,519.76 105.68,833.85 -28.49,305.73 -118.29,629.35 -259.7,935.86"
         style="fill:#d7c7b9;fill-opacity:1;fill-rule:nonzero;stroke:none"
         id="path84" />
      <path
         d="M 860.523,9399.57 C 734.574,9686.99 572.289,9933.8 378.164,10133.2 261.801,10252.7 135.328,10353.1 0,10434.4 v -41.3 c 125.906,-77.7 243.879,-172.7 352.867,-284.6 191.16,-196.28 351.078,-439.58 475.317,-723.11 C 1048.55,8882.46 1136.74,8278.3 1058.33,7808.66 1013.94,7542.84 915.805,7300.3 766.641,7087.76 626.582,6888.18 444.617,6718.88 225.789,6584.55 153.945,6540.44 78.3945,6500.64 0,6465.07 v -38.66 c 84.9609,37.8 166.73,80.45 244.262,128.05 222.961,136.86 408.433,309.47 551.285,513.02 152.219,216.89 252.343,464.3 297.603,735.37 79.48,476.03 -9.65,1087.85 -232.627,1596.72"
         style="fill:#d7c7b9;fill-opacity:1;fill-rule:nonzero;stroke:none"
         id="path86" />
      <path
         d="M 613.762,7962.09 C 570.52,8396.98 509.926,8898.18 337.273,9342.77 247.773,9573.26 134.379,9768.49 0,9923.79 v -53.61 C 120.383,9723.08 221.453,9543.48 304.359,9329.99 475.398,8889.55 535.609,8391.17 578.617,7958.6 621.992,7522.44 497.297,7181.99 208.004,6946.68 145.813,6896.1 76.0703,6851.15 0,6811.67 v -39.71 c 84.6133,42.52 161.813,91.63 230.289,147.33 299.066,243.25 428.086,594.1 383.473,1042.8"
         style="fill:#d7c7b9;fill-opacity:1;fill-rule:nonzero;stroke:none"
         id="path88" />
      <path
         d="M 133.168,8121.15 C 77.8359,8268.35 36.2695,8418.22 0,8566.96 V 8424.51 C 28.457,8318.96 60.8086,8213.3 100.117,8108.72 247.441,7716.79 228.652,7419.26 44.2852,7224.4 30.3438,7209.67 15.5039,7195.72 0,7182.38 v -45.56 c 24.9883,19.56 48.4219,40.58 69.9297,63.31 194.4453,205.49 215.7153,515.37 63.2383,921.02"
         style="fill:#d7c7b9;fill-opacity:1;fill-rule:nonzero;stroke:none"
         id="path90" />
      <g
         id="g92">
        <g
           id="g94"
           clip-path="url(#clipPath98)">
          <g
             id="g100"
             clip-path="url(#clipPath104)">
            <path
               d="m 6220,8108 v 1 h -13 v 1 h -13 v 1 h -12 v 1 h -8 v 1 h -8 v 1 h -8 v 1 h -8 v 1 h -6 v 1 h -6 v 1 h -6 v 1 h -5 v 1 h -6 v 1 h -5 v 1 h -6 v 1 h -4 v 1 h -4 v 1 h -5 v 1 h -4 v 1 h -4 v 1 h -5 v 1 h -4 v 1 h -4 v 1 h -4 v 1 h -4 v 1 h -3 v 1 h -4 v 1 h -3 v 1 h -4 v 1 h -3 v 1 h -4 v 1 h -3 v 1 h -4 v 1 h -3 v 1 h -3 v 1 h -3 v 1 h -2 v 1 h -3 v 1 h -3 v 1 h -3 v 1 h -3 v 1 h -3 v 1 h -3 v 1 h -3 v 1 h -3 v 1 h -2 v 1 h -3 v 1 h -2 v 1 h -3 v 1 h -3 v 1 h -2 v 1 h -3 v 1 h -2 v 1 h -3 v 1 h -2 v 1 h -3 v 1 h -2 v 1 h -3 v 1 h -2 v 1 h -2 v 1 h -2 v 1 h -3 v 1 h -2 v 1 h -2 v 1 h -2 v 1 h -2 v 1 h -3 v 1 h -2 v 1 h -2 v 1 h -2 v 1 h -2 v 1 h -3 v 1 h -2 v 1 h -2 v 1 h -2 v 1 h -2 v 1 h -1 v 1 h -2 v 1 h -2 v 1 h -2 v 1 h -2 v 1 h -2 v 1 h -2 v 1 h -2 v 1 h -2 v 1 h -2 v 1 h -2 v 1 h -2 v 1 h -2 v 1 h -1 v 1 h -2 v 1 h -2 v 1 h -2 v 1 h -1 v 1 h -2 v 1 h -2 v 1 h -2 v 1 h -1 v 1 h -2 v 1 h -2 v 1 h -2 v 1 h -1 v 1 h -2 v 1 h -2 v 1 h -2 v 1 h -1 v 1 h -2 v 1 h -1 v 1 h -2 v 1 h -2 v 1 h -1 v 1 h -2 v 1 h -1 v 1 h -2 v 1 h -1 v 1 h -2 v 1 h -1 v 1 h -2 v 1 h -2 v 1 h -1 v 1 h -2 v 1 h -1 v 1 h -2 v 1 h -1 v 1 h -2 v 1 h -1 v 1 h -2 v 1 h -1 v 1 h -2 v 1 h -1 v 1 h -1 v 1 h -2 v 1 h -1 v 1 h -2 v 1 h -1 v 1 h -1 v 1 h -2 v 1 h -1 v 1 h -2 v 1 h -1 v 1 h -1 v 1 h -2 v 1 h -1 v 1 h -2 v 1 h -1 v 1 h -1 v 1 h -2 v 1 h -1 v 1 h -1 v 1 h -1 v 1 h -2 v 1 h -1 v 1 h -1 v 1 h -2 v 1 h -1 v 1 h -1 v 1 h -1 v 1 h -2 v 1 h -1 v 1 h -1 v 1 h -1 v 1 h -2 v 1 h -1 v 1 h -1 v 1 h -2 v 1 h -1 v 1 h -1 v 1 h -1 v 1 h -1 v 1 h -2 v 1 h -1 v 1 h -1 v 1 h -1 v 1 h -1 v 1 h -1 v 1 h -1 v 1 h -2 v 1 h -1 v 1 h -1 v 1 h -1 v 1 h -1 v 1 h -1 v 1 h -2 v 1 h -1 v 1 h -1 v 1 h -1 v 1 h -1 v 1 h -1 v 1 h -1 v 1 h -2 v 1 h -1 v 1 h -1 v 1 h -1 v 1 h -1 v 1 h -1 v 1 h -1 v 1 h -1 v 1 h -1 v 1 h -1 v 1 h -1 v 1 h -1 v 1 h -1 v 1 h -1 v 1 h -1 v 1 h -1 v 1 h -1 v 1 h -1 v 1 h -2 v 1 h -1 v 1 h -1 v 1 h -1 v 1 h -1 v 1 h -1 v 1 h -1 v 1 h -1 v 1 h -1 v 1 h -1 v 1 h -1 v 1 h -1 v 1 h -1 v 2 h -1 v 1 h -1 v 1 h -1 v 1 h -1 v 1 h -1 v 1 h -1 v 1 h -1 v 1 h -1 v 1 h -1 v 1 h -1 v 1 h -1 v 1 h -1 v 1 h -1 v 1 h -1 v 1 h -1 v 1 h -1 v 1 h -1 v 1 h -1 v 1 h -1 v 2 h -1 v 1 h -1 v 1 h -1 v 1 h -1 v 1 h -1 v 1 h -1 v 1 h -1 v 2 h -1 v 1 h -1 v 1 h -1 v 1 h -1 v 1 h -1 v 1 h -1 v 2 h -1 v 1 h -1 v 1 h -1 v 1 h -1 v 1 h -1 v 1 h -1 v 1 h -1 v 2 h -1 v 1 h -1 v 1 h -1 v 1 h -1 v 2 h -1 v 1 h -1 v 1 h -1 v 1 h -1 v 2 h -1 v 1 h -1 v 1 h -1 v 1 h -1 v 2 h -1 v 1 h -1 v 1 h -1 v 2 h -1 v 1 h -1 v 1 h -1 v 1 h -1 v 2 h -1 v 1 h -1 v 1 h -1 v 1 h -1 v 2 h -1 v 1 h -1 v 1 h -1 v 2 h -1 v 1 h -1 v 2 h -1 v 1 h -1 v 1 h -1 v 2 h -1 v 1 h -1 v 2 h -1 v 1 h -1 v 2 h -1 v 1 h -1 v 1 h -1 v 2 h -1 v 1 h -1 v 2 h -1 v 1 h -1 v 1 h -1 v 2 h -1 v 1 h -1 v 2 h -1 v 1 h -1 v 2 h -1 v 1 h -1 v 2 h -1 v 2 h -1 v 1 h -1 v 2 h -1 v 1 h -1 v 2 h -1 v 1 h -1 v 2 h -1 v 1 h -1 v 2 h -1 v 2 h -1 v 1 h -1 v 2 h -1 v 1 h -1 v 2 h -1 v 2 h -1 v 1 h -1 v 2 h -1 v 2 h -1 v 2 h -1 v 1 h -1 v 2 h -1 v 2 h -1 v 2 h -1 v 1 h -1 v 2 h -1 v 2 h -1 v 1 h -1 v 2 h -1 v 2 h -1 v 2 h -1 v 1 h -1 v 2 h -1 v 2 h -1 v 2 h -1 v 2 h -1 v 2 h -1 v 2 h -1 v 2 h -1 v 2 h -1 v 2 h -1 v 2 h -1 v 2 h -1 v 2 h -1 v 2 h -1 v 2 h -1 v 2 h -1 v 2 h -1 v 2 h -1 v 2 h -1 v 2 h -1 v 2 h -1 v 2 h -1 v 3 h -1 v 2 h -1 v 2 h -1 v 2 h -1 v 3 h -1 v 2 h -1 v 2 h -1 v 2 h -1 v 2 h -1 v 3 h -1 v 2 h -1 v 3 h -1 v 2 h -1 v 3 h -1 v 2 h -1 v 3 h -1 v 2 h -1 v 3 h -1 v 2 h -1 v 3 h -1 v 2 h -1 v 3 h -1 v 2 h -1 v 3 h -1 v 3 h -1 v 3 h -1 v 3 h -1 v 3 h -1 v 3 h -1 v 3 h -1 v 3 h -1 v 3 h -1 v 3 h -1 v 3 h -1 v 3 h -1 v 3 h -1 v 4 h -1 v 3 h -1 v 4 h -1 v 3 h -1 v 4 h -1 v 3 h -1 v 4 h -1 v 4 h -1 v 3 h -1 v 5 h -1 v 4 h -1 v 4 h -1 v 5 h -1 v 4 h -1 v 4 h -1 v 5 h -1 v 4 h -1 v 6 h -1 v 5 h -1 v 6 h -1 v 5 h -1 v 6 h -1 v 6 h -1 v 7 h -1 v 8 h -1 v 7 h -1 v 8 h -1 v 8 h -1 v 13 h -1 v 14 h -1 v 16 h -1 v 65 h 1 v 16 h 1 v 13 h 1 v 14 h 1 v 7 h 1 v 8 h 1 v 8 h 1 v 8 h 1 v 7 h 1 v 6 h 1 v 5 h 1 v 6 h 1 v 6 h 1 v 5 h 1 v 6 h 1 v 4 h 1 v 5 h 1 v 4 h 1 v 4 h 1 v 5 h 1 v 4 h 1 v 4 h 1 v 5 h 1 v 3 h 1 v 4 h 1 v 3 h 1 v 4 h 1 v 3 h 1 v 4 h 1 v 3 h 1 v 4 h 1 v 3 h 1 v 4 h 1 v 3 h 1 v 3 h 1 v 3 h 1 v 3 h 1 v 3 h 1 v 3 h 1 v 3 h 1 v 3 h 1 v 3 h 1 v 3 h 1 v 3 h 1 v 2 h 1 v 3 h 1 v 2 h 1 v 3 h 1 v 3 h 1 v 2 h 1 v 3 h 1 v 2 h 1 v 3 h 1 v 2 h 1 v 3 h 1 v 2 h 1 v 3 h 1 v 2 h 1 v 2 h 1 v 3 h 1 v 2 h 1 v 2 h 1 v 2 h 1 v 3 h 1 v 2 h 1 v 2 h 1 v 2 h 1 v 2 h 1 v 3 h 1 v 2 h 1 v 2 h 1 v 2 h 1 v 2 h 1 v 2 h 1 v 2 h 1 v 2 h 1 v 2 h 1 v 2 h 1 v 2 h 1 v 2 h 1 v 2 h 1 v 2 h 1 v 2 h 1 v 2 h 1 v 2 h 1 v 2 h 1 v 2 h 1 v 2 h 1 v 1 h 1 v 2 h 1 v 2 h 1 v 2 h 1 v 1 h 1 v 2 h 1 v 2 h 1 v 2 h 1 v 1 h 1 v 2 h 1 v 2 h 1 v 2 h 1 v 1 h 1 v 2 h 1 v 2 h 1 v 1 h 1 v 2 h 1 v 2 h 1 v 2 h 1 v 1 h 1 v 2 h 1 v 1 h 1 v 2 h 1 v 1 h 1 v 2 h 1 v 1 h 1 v 2 h 1 v 2 h 1 v 1 h 1 v 2 h 1 v 1 h 1 v 2 h 1 v 1 h 1 v 2 h 1 v 1 h 1 v 2 h 1 v 2 h 1 v 1 h 1 v 1 h 1 v 2 h 1 v 1 h 1 v 2 h 1 v 1 h 1 v 1 h 1 v 2 h 1 v 1 h 1 v 2 h 1 v 1 h 1 v 2 h 1 v 1 h 1 v 1 h 1 v 2 h 1 v 1 h 1 v 2 h 1 v 1 h 1 v 1 h 1 v 2 h 1 v 1 h 1 v 1 h 1 v 2 h 1 v 1 h 1 v 1 h 1 v 1 h 1 v 2 h 1 v 1 h 1 v 1 h 1 v 2 h 1 v 1 h 1 v 1 h 1 v 1 h 1 v 2 h 1 v 1 h 1 v 1 h 1 v 1 h 1 v 2 h 1 v 1 h 1 v 1 h 1 v 2 h 1 v 1 h 1 v 1 h 1 v 1 h 1 v 1 h 1 v 1 h 1 v 2 h 1 v 1 h 1 v 1 h 1 v 1 h 1 v 1 h 1 v 1 h 1 v 2 h 1 v 1 h 1 v 1 h 1 v 1 h 1 v 1 h 1 v 1 h 1 v 1 h 1 v 2 h 1 v 1 h 1 v 1 h 1 v 1 h 1 v 1 h 1 v 1 h 1 v 1 h 1 v 2 h 1 v 1 h 1 v 1 h 1 v 1 h 1 v 1 h 1 v 1 h 1 v 1 h 1 v 1 h 1 v 1 h 1 v 1 h 1 v 1 h 1 v 1 h 1 v 1 h 1 v 1 h 1 v 1 h 1 v 1 h 1 v 1 h 1 v 1 h 1 v 1 h 1 v 1 h 1 v 2 h 1 v 1 h 1 v 1 h 1 v 1 h 1 v 1 h 1 v 1 h 2 v 1 h 1 v 1 h 1 v 1 h 1 v 1 h 1 v 1 h 1 v 1 h 1 v 1 h 1 v 1 h 1 v 1 h 1 v 1 h 1 v 1 h 1 v 1 h 1 v 1 h 1 v 1 h 1 v 1 h 1 v 1 h 1 v 1 h 1 v 1 h 1 v 1 h 1 v 1 h 2 v 1 h 1 v 1 h 1 v 1 h 1 v 1 h 1 v 1 h 1 v 1 h 1 v 1 h 2 v 1 h 1 v 1 h 1 v 1 h 1 v 1 h 1 v 1 h 1 v 1 h 1 v 1 h 2 v 1 h 1 v 1 h 1 v 1 h 1 v 1 h 1 v 1 h 1 v 1 h 2 v 1 h 1 v 1 h 1 v 1 h 1 v 1 h 1 v 1 h 1 v 1 h 2 v 1 h 1 v 1 h 1 v 1 h 2 v 1 h 1 v 1 h 1 v 1 h 1 v 1 h 2 v 1 h 1 v 1 h 1 v 1 h 1 v 1 h 2 v 1 h 1 v 1 h 1 v 1 h 2 v 1 h 1 v 1 h 1 v 1 h 1 v 1 h 2 v 1 h 1 v 1 h 1 v 1 h 2 v 1 h 1 v 1 h 1 v 1 h 2 v 1 h 1 v 1 h 2 v 1 h 1 v 1 h 1 v 1 h 2 v 1 h 1 v 1 h 2 v 1 h 1 v 1 h 2 v 1 h 1 v 1 h 1 v 1 h 2 v 1 h 1 v 1 h 2 v 1 h 1 v 1 h 1 v 1 h 2 v 1 h 1 v 1 h 2 v 1 h 2 v 1 h 1 v 1 h 2 v 1 h 1 v 1 h 2 v 1 h 1 v 1 h 2 v 1 h 2 v 1 h 1 v 1 h 2 v 1 h 1 v 1 h 2 v 1 h 1 v 1 h 2 v 1 h 1 v 1 h 2 v 1 h 2 v 1 h 2 v 1 h 1 v 1 h 2 v 1 h 2 v 1 h 1 v 1 h 2 v 1 h 2 v 1 h 2 v 1 h 1 v 1 h 2 v 1 h 2 v 1 h 2 v 1 h 1 v 1 h 2 v 1 h 2 v 1 h 2 v 1 h 1 v 1 h 2 v 1 h 2 v 1 h 2 v 1 h 2 v 1 h 2 v 1 h 2 v 1 h 2 v 1 h 2 v 1 h 2 v 1 h 2 v 1 h 2 v 1 h 2 v 1 h 2 v 1 h 2 v 1 h 2 v 1 h 2 v 1 h 2 v 1 h 2 v 1 h 2 v 1 h 3 v 1 h 2 v 1 h 2 v 1 h 2 v 1 h 2 v 1 h 3 v 1 h 2 v 1 h 2 v 1 h 2 v 1 h 3 v 1 h 2 v 1 h 2 v 1 h 3 v 1 h 2 v 1 h 3 v 1 h 2 v 1 h 3 v 1 h 2 v 1 h 3 v 1 h 2 v 1 h 3 v 1 h 3 v 1 h 2 v 1 h 3 v 1 h 2 v 1 h 3 v 1 h 3 v 1 h 3 v 1 h 3 v 1 h 3 v 1 h 3 v 1 h 3 v 1 h 3 v 1 h 3 v 1 h 3 v 1 h 3 v 1 h 3 v 1 h 4 v 1 h 4 v 1 h 3 v 1 h 4 v 1 h 3 v 1 h 4 v 1 h 3 v 1 h 4 v 1 h 3 v 1 h 5 v 1 h 4 v 1 h 4 v 1 h 5 v 1 h 4 v 1 h 4 v 1 h 5 v 1 h 4 v 1 h 6 v 1 h 5 v 1 h 6 v 1 h 6 v 1 h 5 v 1 h 6 v 1 h 7 v 1 h 8 v 1 h 8 v 1 h 7 v 1 h 8 v 1 h 13 v 1 h 13 v 1 h 16 v 1 h 67 v -1 h 16 v -1 h 13 v -1 h 13 v -1 h 8 v -1 h 8 v -1 h 8 v -1 h 7 v -1 h 8 v -1 h 5 v -1 h 6 v -1 h 5 v -1 h 6 v -1 h 6 v -1 h 5 v -1 h 5 v -1 h 4 v -1 h 4 v -1 h 5 v -1 h 4 v -1 h 4 v -1 h 5 v -1 h 4 v -1 h 4 v -1 h 3 v -1 h 4 v -1 h 3 v -1 h 4 v -1 h 3 v -1 h 4 v -1 h 3 v -1 h 4 v -1 h 3 v -1 h 3 v -1 h 3 v -1 h 3 v -1 h 3 v -1 h 3 v -1 h 3 v -1 h 3 v -1 h 3 v -1 h 3 v -1 h 3 v -1 h 3 v -1 h 3 v -1 h 2 v -1 h 3 v -1 h 2 v -1 h 3 v -1 h 2 v -1 h 3 v -1 h 2 v -1 h 3 v -1 h 2 v -1 h 3 v -1 h 3 v -1 h 2 v -1 h 2 v -1 h 3 v -1 h 2 v -1 h 2 v -1 h 2 v -1 h 3 v -1 h 2 v -1 h 2 v -1 h 2 v -1 h 2 v -1 h 3 v -1 h 2 v -1 h 2 v -1 h 2 v -1 h 2 v -1 h 2 v -1 h 2 v -1 h 2 v -1 h 2 v -1 h 2 v -1 h 2 v -1 h 2 v -1 h 2 v -1 h 2 v -1 h 2 v -1 h 2 v -1 h 2 v -1 h 2 v -1 h 2 v -1 h 2 v -1 h 2 v -1 h 2 v -1 h 1 v -1 h 2 v -1 h 2 v -1 h 2 v -1 h 1 v -1 h 2 v -1 h 2 v -1 h 2 v -1 h 1 v -1 h 2 v -1 h 2 v -1 h 2 v -1 h 1 v -1 h 2 v -1 h 2 v -1 h 1 v -1 h 2 v -1 h 2 v -1 h 1 v -1 h 2 v -1 h 1 v -1 h 2 v -1 h 2 v -1 h 1 v -1 h 2 v -1 h 1 v -1 h 2 v -1 h 1 v -1 h 2 v -1 h 1 v -1 h 2 v -1 h 2 v -1 h 1 v -1 h 2 v -1 h 1 v -1 h 2 v -1 h 1 v -1 h 2 v -1 h 1 v -1 h 1 v -1 h 2 v -1 h 1 v -1 h 2 v -1 h 1 v -1 h 2 v -1 h 1 v -1 h 1 v -1 h 2 v -1 h 1 v -1 h 2 v -1 h 1 v -1 h 1 v -1 h 2 v -1 h 1 v -1 h 2 v -1 h 1 v -1 h 1 v -1 h 2 v -1 h 1 v -1 h 1 v -1 h 1 v -1 h 2 v -1 h 1 v -1 h 1 v -1 h 2 v -1 h 1 v -1 h 1 v -1 h 1 v -1 h 2 v -1 h 1 v -1 h 1 v -1 h 1 v -1 h 2 v -1 h 1 v -1 h 1 v -1 h 2 v -1 h 1 v -1 h 1 v -1 h 1 v -1 h 1 v -1 h 2 v -1 h 1 v -1 h 1 v -1 h 1 v -1 h 1 v -1 h 1 v -1 h 1 v -1 h 2 v -1 h 1 v -1 h 1 v -1 h 1 v -1 h 1 v -1 h 1 v -1 h 2 v -1 h 1 v -1 h 1 v -1 h 1 v -1 h 1 v -1 h 1 v -1 h 1 v -1 h 2 v -1 h 1 v -1 h 1 v -1 h 1 v -1 h 1 v -1 h 1 v -1 h 1 v -1 h 1 v -1 h 1 v -1 h 1 v -1 h 1 v -1 h 1 v -1 h 1 v -1 h 1 v -1 h 1 v -1 h 1 v -1 h 1 v -1 h 1 v -1 h 2 v -1 h 1 v -1 h 1 v -1 h 1 v -1 h 1 v -1 h 1 v -1 h 1 v -1 h 1 v -1 h 1 v -1 h 1 v -1 h 1 v -1 h 1 v -1 h 1 v -1 h 1 v -2 h 1 v -1 h 1 v -1 h 1 v -1 h 1 v -1 h 1 v -1 h 1 v -1 h 1 v -1 h 1 v -1 h 1 v -1 h 1 v -1 h 1 v -1 h 1 v -1 h 1 v -1 h 1 v -1 h 1 v -1 h 1 v -1 h 1 v -1 h 1 v -1 h 1 v -2 h 1 v -1 h 1 v -1 h 1 v -1 h 1 v -1 h 1 v -1 h 1 v -2 h 1 v -1 h 1 v -1 h 1 v -1 h 1 v -1 h 1 v -1 h 1 v -1 h 1 v -2 h 1 v -1 h 1 v -1 h 1 v -1 h 1 v -1 h 1 v -1 h 1 v -2 h 1 v -1 h 1 v -1 h 1 v -1 h 1 v -1 h 1 v -2 h 1 v -1 h 1 v -1 h 1 v -2 h 1 v -1 h 1 v -1 h 1 v -1 h 1 v -2 h 1 v -1 h 1 v -1 h 1 v -1 h 1 v -2 h 1 v -1 h 1 v -1 h 1 v -2 h 1 v -1 h 1 v -1 h 1 v -1 h 1 v -2 h 1 v -1 h 1 v -1 h 1 v -2 h 1 v -1 h 1 v -2 h 1 v -1 h 1 v -1 h 1 v -2 h 1 v -1 h 1 v -2 h 1 v -1 h 1 v -1 h 1 v -2 h 1 v -1 h 1 v -2 h 1 v -1 h 1 v -1 h 1 v -2 h 1 v -1 h 1 v -2 h 1 v -1 h 1 v -2 h 1 v -1 h 1 v -2 h 1 v -1 h 1 v -2 h 1 v -1 h 1 v -2 h 1 v -2 h 1 v -1 h 1 v -2 h 1 v -1 h 1 v -2 h 1 v -1 h 1 v -2 h 1 v -1 h 1 v -2 h 1 v -2 h 1 v -1 h 1 v -2 h 1 v -1 h 1 v -2 h 1 v -2 h 1 v -2 h 1 v -1 h 1 v -2 h 1 v -2 h 1 v -2 h 1 v -1 h 1 v -2 h 1 v -2 h 1 v -2 h 1 v -1 h 1 v -2 h 1 v -2 h 1 v -1 h 1 v -2 h 1 v -2 h 1 v -2 h 1 v -2 h 1 v -2 h 1 v -2 h 1 v -2 h 1 v -2 h 1 v -2 h 1 v -2 h 1 v -2 h 1 v -2 h 1 v -1 h 1 v -2 h 1 v -2 h 1 v -2 h 1 v -2 h 1 v -2 h 1 v -2 h 1 v -3 h 1 v -2 h 1 v -2 h 1 v -2 h 1 v -3 h 1 v -2 h 1 v -2 h 1 v -2 h 1 v -2 h 1 v -3 h 1 v -2 h 1 v -2 h 1 v -2 h 1 v -3 h 1 v -2 h 1 v -3 h 1 v -2 h 1 v -3 h 1 v -2 h 1 v -3 h 1 v -2 h 1 v -3 h 1 v -2 h 1 v -3 h 1 v -3 h 1 v -2 h 1 v -3 h 1 v -3 h 1 v -3 h 1 v -3 h 1 v -3 h 1 v -3 h 1 v -2 h 1 v -3 h 1 v -3 h 1 v -3 h 1 v -3 h 1 v -3 h 1 v -4 h 1 v -3 h 1 v -4 h 1 v -3 h 1 v -4 h 1 v -3 h 1 v -4 h 1 v -3 h 1 v -4 h 1 v -3 h 1 v -5 h 1 v -4 h 1 v -4 h 1 v -5 h 1 v -4 h 1 v -4 h 1 v -5 h 1 v -4 h 1 v -6 h 1 v -5 h 1 v -6 h 1 v -5 h 1 v -6 h 1 v -6 h 1 v -6 h 1 v -8 h 1 v -8 h 1 v -8 h 1 v -8 h 1 v -12 h 1 v -13 h 1 v -13 h 1 v -77 h -1 v -14 h -1 v -13 h -1 v -12 h -1 v -7 h -1 v -8 h -1 v -8 h -1 v -8 h -1 v -7 h -1 v -5 h -1 v -6 h -1 v -5 h -1 v -6 h -1 v -6 h -1 v -5 h -1 v -4 h -1 v -5 h -1 v -4 h -1 v -4 h -1 v -5 h -1 v -4 h -1 v -4 h -1 v -5 h -1 v -3 h -1 v -4 h -1 v -3 h -1 v -4 h -1 v -3 h -1 v -4 h -1 v -3 h -1 v -4 h -1 v -3 h -1 v -4 h -1 v -3 h -1 v -3 h -1 v -3 h -1 v -3 h -1 v -3 h -1 v -3 h -1 v -3 h -1 v -3 h -1 v -3 h -1 v -2 h -1 v -3 h -1 v -3 h -1 v -3 h -1 v -2 h -1 v -3 h -1 v -2 h -1 v -3 h -1 v -2 h -1 v -3 h -1 v -2 h -1 v -3 h -1 v -3 h -1 v -2 h -1 v -3 h -1 v -2 h -1 v -2 h -1 v -2 h -1 v -3 h -1 v -2 h -1 v -2 h -1 v -2 h -1 v -2 h -1 v -3 h -1 v -2 h -1 v -2 h -1 v -2 h -1 v -2 h -1 v -3 h -1 v -2 h -1 v -2 h -1 v -2 h -1 v -2 h -1 v -2 h -1 v -2 h -1 v -2 h -1 v -2 h -1 v -2 h -1 v -2 h -1 v -1 h -1 v -2 h -1 v -2 h -1 v -2 h -1 v -2 h -1 v -2 h -1 v -2 h -1 v -2 h -1 v -2 h -1 v -1 h -1 v -2 h -1 v -2 h -1 v -2 h -1 v -1 h -1 v -2 h -1 v -2 h -1 v -2 h -1 v -1 h -1 v -2 h -1 v -2 h -1 v -2 h -1 v -1 h -1 v -2 h -1 v -2 h -1 v -2 h -1 v -1 h -1 v -2 h -1 v -1 h -1 v -2 h -1 v -1 h -1 v -2 h -1 v -1 h -1 v -2 h -1 v -2 h -1 v -1 h -1 v -2 h -1 v -1 h -1 v -2 h -1 v -1 h -1 v -2 h -1 v -1 h -1 v -2 h -1 v -2 h -1 v -1 h -1 v -2 h -1 v -1 h -1 v -1 h -1 v -2 h -1 v -1 h -1 v -2 h -1 v -1 h -1 v -1 h -1 v -2 h -1 v -1 h -1 v -2 h -1 v -1 h -1 v -1 h -1 v -2 h -1 v -1 h -1 v -2 h -1 v -1 h -1 v -1 h -1 v -2 h -1 v -1 h -1 v -2 h -1 v -1 h -1 v -1 h -1 v -1 h -1 v -2 h -1 v -1 h -1 v -1 h -1 v -1 h -1 v -2 h -1 v -1 h -1 v -1 h -1 v -2 h -1 v -1 h -1 v -1 h -1 v -1 h -1 v -2 h -1 v -1 h -1 v -1 h -1 v -1 h -1 v -2 h -1 v -1 h -1 v -1 h -1 v -1 h -1 v -2 h -1 v -1 h -1 v -1 h -1 v -1 h -1 v -1 h -1 v -1 h -1 v -2 h -1 v -1 h -1 v -1 h -1 v -1 h -1 v -1 h -1 v -1 h -1 v -1 h -1 v -2 h -1 v -1 h -1 v -1 h -1 v -1 h -1 v -1 h -1 v -1 h -1 v -2 h -1 v -1 h -1 v -1 h -1 v -1 h -1 v -1 h -1 v -1 h -1 v -1 h -1 v -1 h -1 v -1 h -1 v -1 h -1 v -1 h -1 v -1 h -1 v -1 h -1 v -1 h -1 v -1 h -1 v -1 h -1 v -2 h -1 v -1 h -1 v -1 h -1 v -1 h -1 v -1 h -1 v -1 h -1 v -1 h -1 v -1 h -1 v -1 h -1 v -1 h -1 v -1 h -1 v -1 h -1 v -1 h -1 v -1 h -1 v -1 h -1 v -1 h -1 v -1 h -1 v -1 h -1 v -1 h -1 v -1 h -1 v -1 h -1 v -1 h -2 v -1 h -1 v -1 h -1 v -1 h -1 v -1 h -1 v -1 h -1 v -1 h -1 v -1 h -1 v -1 h -1 v -1 h -1 v -1 h -1 v -1 h -1 v -1 h -1 v -1 h -1 v -1 h -1 v -1 h -1 v -1 h -2 v -1 h -1 v -1 h -1 v -1 h -1 v -1 h -1 v -1 h -1 v -1 h -2 v -1 h -1 v -1 h -1 v -1 h -1 v -1 h -1 v -1 h -1 v -1 h -1 v -1 h -2 v -1 h -1 v -1 h -1 v -1 h -1 v -1 h -1 v -1 h -1 v -1 h -2 v -1 h -1 v -1 h -1 v -1 h -1 v -1 h -2 v -1 h -1 v -1 h -1 v -1 h -1 v -1 h -2 v -1 h -1 v -1 h -1 v -1 h -1 v -1 h -2 v -1 h -1 v -1 h -1 v -1 h -2 v -1 h -1 v -1 h -1 v -1 h -1 v -1 h -2 v -1 h -1 v -1 h -1 v -1 h -1 v -1 h -2 v -1 h -1 v -1 h -2 v -1 h -1 v -1 h -1 v -1 h -2 v -1 h -1 v -1 h -2 v -1 h -1 v -1 h -1 v -1 h -2 v -1 h -1 v -1 h -2 v -1 h -1 v -1 h -1 v -1 h -2 v -1 h -1 v -1 h -2 v -1 h -1 v -1 h -1 v -1 h -2 v -1 h -1 v -1 h -2 v -1 h -2 v -1 h -1 v -1 h -2 v -1 h -1 v -1 h -2 v -1 h -1 v -1 h -2 v -1 h -1 v -1 h -2 v -1 h -2 v -1 h -1 v -1 h -2 v -1 h -1 v -1 h -2 v -1 h -1 v -1 h -2 v -1 h -1 v -1 h -2 v -1 h -2 v -1 h -2 v -1 h -1 v -1 h -2 v -1 h -2 v -1 h -2 v -1 h -1 v -1 h -2 v -1 h -2 v -1 h -2 v -1 h -1 v -1 h -2 v -1 h -2 v -1 h -2 v -1 h -1 v -1 h -2 v -1 h -2 v -1 h -2 v -1 h -2 v -1 h -2 v -1 h -2 v -1 h -2 v -1 h -2 v -1 h -2 v -1 h -1 v -1 h -2 v -1 h -2 v -1 h -2 v -1 h -2 v -1 h -2 v -1 h -2 v -1 h -2 v -1 h -2 v -1 h -2 v -1 h -3 v -1 h -2 v -1 h -2 v -1 h -2 v -1 h -2 v -1 h -3 v -1 h -2 v -1 h -2 v -1 h -2 v -1 h -2 v -1 h -3 v -1 h -2 v -1 h -2 v -1 h -2 v -1 h -3 v -1 h -3 v -1 h -2 v -1 h -3 v -1 h -2 v -1 h -3 v -1 h -2 v -1 h -3 v -1 h -2 v -1 h -3 v -1 h -2 v -1 h -3 v -1 h -3 v -1 h -3 v -1 h -3 v -1 h -2 v -1 h -3 v -1 h -3 v -1 h -3 v -1 h -3 v -1 h -3 v -1 h -3 v -1 h -3 v -1 h -3 v -1 h -4 v -1 h -3 v -1 h -4 v -1 h -3 v -1 h -4 v -1 h -3 v -1 h -4 v -1 h -3 v -1 h -4 v -1 h -3 v -1 h -5 v -1 h -4 v -1 h -4 v -1 h -5 v -1 h -4 v -1 h -4 v -1 h -5 v -1 h -4 v -1 h -5 v -1 h -6 v -1 h -6 v -1 h -5 v -1 h -6 v -1 h -5 v -1 h -7 v -1 h -8 v -1 h -8 v -1 h -8 v -1 h -7 v -1 h -13 v -1 h -13 v -1 h -13 v -1"
               style="fill:url(#radialGradient112);fill-opacity:1;fill-rule:nonzero;stroke:none"
               id="path114" />
          </g>
        </g>
      </g>
      <path
         d="m 6905.69,9276.62 c 0,-359.42 -291.36,-650.79 -650.79,-650.79 -359.43,0 -650.8,291.37 -650.8,650.79 0,359.42 291.37,650.8 650.8,650.8 359.43,0 650.79,-291.38 650.79,-650.8"
         style="fill:#5fc8ab;fill-opacity:1;fill-rule:nonzero;stroke:none"
         id="path116" />
      <path
         d="m 17130,8839.41 c 0,-661.24 -536,-1197.28 -1197.3,-1197.28 -661.2,0 -1197.3,536.04 -1197.3,1197.28 0,661.24 536.1,1197.29 1197.3,1197.29 661.3,0 1197.3,-536.05 1197.3,-1197.29"
         style="fill:#f57e91;fill-opacity:1;fill-rule:nonzero;stroke:none"
         id="path118" />
      <path
         d="m 9020,0 c 0,248.5 201.47,450 450,450 248.53,0 450,-201.5 450,-450 h -900"
         style="fill:#f9cd2e;fill-opacity:1;fill-rule:nonzero;stroke:none"
         id="path120" />
      <path
         d="m 10640,8435 c 0,-52.47 -42.5,-95 -95,-95 -52.5,0 -95,42.53 -95,95 0,52.47 42.5,95 95,95 52.5,0 95,-42.53 95,-95"
         style="fill:#7ec8f0;fill-opacity:1;fill-rule:nonzero;stroke:none"
         id="path122" />
      <path
         d="m 1434.98,8158.59 c -42.2,0 -76.41,34.21 -76.41,76.41 0,42.2 34.21,76.41 76.41,76.41 42.19,0 76.4,-34.21 76.4,-76.41 0,-42.2 -34.21,-76.41 -76.4,-76.41 z m 0,201.43 c -69.05,0 -125.03,-55.97 -125.03,-125.02 0,-69.05 55.98,-125.02 125.03,-125.02 69.04,0 125.02,55.97 125.02,125.02 0,69.05 -55.98,125.02 -125.02,125.02"
         style="fill:#f57e91;fill-opacity:1;fill-rule:nonzero;stroke:none"
         id="path124" />
      <path
         d="m 18015,2938.59 c -42.2,0 -76.4,34.21 -76.4,76.41 0,42.2 34.2,76.41 76.4,76.41 42.2,0 76.4,-34.21 76.4,-76.41 0,-42.2 -34.2,-76.41 -76.4,-76.41 z m 0,201.43 c -69.1,0 -125,-55.97 -125,-125.02 0,-69.05 55.9,-125.02 125,-125.02 69,0 125,55.97 125,125.02 0,69.05 -56,125.02 -125,125.02"
         style="fill:#5fc8ab;fill-opacity:1;fill-rule:nonzero;stroke:none"
         id="path126" />
      <g
         id="g128">
        <g
           id="g130"
           clip-path="url(#clipPath134)">
          <path
             d="m 3668.85,654.199 c -718.6,0 -1301.14,582.561 -1301.14,1301.161 0,718.6 582.54,1301.15 1301.14,1301.15 718.6,0 1301.15,-582.55 1301.15,-1301.15 0,-718.6 -582.55,-1301.161 -1301.15,-1301.161"
             style="fill:url(#radialGradient140);fill-opacity:1;fill-rule:nonzero;stroke:none"
             id="path142" />
        </g>
      </g>
      <path
         d="m 4757.23,2834.53 c 0,-600.42 -486.74,-1087.16 -1087.17,-1087.16 -600.42,0 -1087.16,486.74 -1087.16,1087.16 0,600.42 486.74,1087.16 1087.16,1087.16 600.43,0 1087.17,-486.74 1087.17,-1087.16"
         style="fill:#7ec8f0;fill-opacity:1;fill-rule:nonzero;stroke:none"
         id="path144" />
    </g>
  </g>
</svg>
